<svg width="24" height="24" xmlns="http://www.w3.org/2000/svg" xmlns:xlink="http://www.w3.org/1999/xlink" xml:space="preserve" overflow="hidden"><g transform="translate(-519 -360)"><path d="M531 377C529.783 377 528.721 376.621 527.812 375.862 526.904 375.104 526.333 374.15 526.1 373L521 373 521 371 526.1 371C526.333 369.85 526.904 368.896 527.812 368.138 528.721 367.379 529.783 367 531 367 532.217 367 533.279 367.379 534.188 368.138 535.096 368.896 535.667 369.85 535.9 371L541 371 541 373 535.9 373C535.667 374.15 535.096 375.104 534.188 375.862 533.279 376.621 532.217 377 531 377ZM531 375C531.833 375 532.542 374.708 533.125 374.125 533.708 373.542 534 372.833 534 372 534 371.167 533.708 370.458 533.125 369.875 532.542 369.292 531.833 369 531 369 530.167 369 529.458 369.292 528.875 369.875 528.292 370.458 528 371.167 528 372 528 372.833 528.292 373.542 528.875 374.125 529.458 374.708 530.167 375 531 375Z" fill="#404040"/></g></svg>