<svg width="24" height="24" xmlns="http://www.w3.org/2000/svg" xmlns:xlink="http://www.w3.org/1999/xlink" xml:space="preserve" overflow="hidden"><g transform="translate(-725 -346)"><path d="M737.5 357 739.5 357 739.5 355 741.5 355 741.5 353 739.5 353 739.5 351 737.5 351 737.5 353 735.5 353 735.5 355 737.5 355 737.5 357ZM735.5 361 741.5 361 741.5 359 735.5 359 735.5 361ZM733 365C732.45 365 731.979 364.804 731.588 364.413 731.196 364.021 731 363.55 731 363L731 349C731 348.45 731.196 347.979 731.588 347.587 731.979 347.196 732.45 347 733 347L740 347 746 353 746 363C746 363.55 745.804 364.021 745.412 364.413 745.021 364.804 744.55 365 744 365L733 365ZM733 363 744 363 744 354 739 349 733 349 733 363ZM729 369C728.45 369 727.979 368.804 727.588 368.413 727.196 368.021 727 367.55 727 367L727 353 729 353 729 367 740 367 740 369 729 369ZM733 363 733 349 733 363Z" fill="#404040"/></g></svg>