<svg width="24" height="24" xmlns="http://www.w3.org/2000/svg" xmlns:xlink="http://www.w3.org/1999/xlink" xml:space="preserve" overflow="hidden"><g transform="translate(-628 -244)"><path d="M633.3 262.025C632.583 261.225 632.021 260.308 631.612 259.275 631.204 258.242 631 257.15 631 256 631 253.5 631.875 251.375 633.625 249.625 635.375 247.875 637.5 247 640 247L640 245 645 248.75 640 252.5 640 250.5C638.483 250.5 637.188 251.038 636.112 252.113 635.037 253.188 634.5 254.483 634.5 256 634.5 256.767 634.646 257.483 634.938 258.15 635.229 258.817 635.625 259.4 636.125 259.9L633.3 262.025ZM640 267 635 263.25 640 259.5 640 261.5C641.517 261.5 642.812 260.962 643.888 259.888 644.963 258.812 645.5 257.517 645.5 256 645.5 255.233 645.354 254.517 645.062 253.85 644.771 253.183 644.375 252.6 643.875 252.1L646.7 249.975C647.417 250.775 647.979 251.692 648.388 252.725 648.796 253.758 649 254.85 649 256 649 258.5 648.125 260.625 646.375 262.375 644.625 264.125 642.5 265 640 265L640 267Z" fill="#404040"/></g></svg>