<svg width="24" height="24" xmlns="http://www.w3.org/2000/svg" xmlns:xlink="http://www.w3.org/1999/xlink" xml:space="preserve" overflow="hidden"><g transform="translate(-554 -257)"><path d="M565 277 565 268.85 562.4 271.45 561 270 566 265 571 270 569.6 271.45 567 268.85 567 277 565 277ZM558 266 558 263C558 262.45 558.196 261.979 558.588 261.587 558.979 261.196 559.45 261 560 261L572 261C572.55 261 573.021 261.196 573.412 261.587 573.804 261.979 574 262.45 574 263L574 266 572 266 572 263 560 263 560 266 558 266Z" fill="#404040"/></g></svg>